<?xml version="1.0" encoding="utf-8"?>
<!-- Generator: Adobe Illustrator 25.2.0, SVG Export Plug-In . SVG Version: 6.00 Build 0)  -->
<svg version="1.2" baseProfile="tiny" id="Calque_1"
	 xmlns="http://www.w3.org/2000/svg" xmlns:xlink="http://www.w3.org/1999/xlink" x="0px" y="0px" viewBox="0 0 1842.5 491.1"
	 overflow="visible" xml:space="preserve">
<path fill="#CE705F" d="M1257.7,113.3l-137.3,100l52.7,161.4l169.8-0.2l52.2-161.6L1257.7,113.3z M1325.9,352.4l-135.9,0.2
	l-42.2-129.1l109.8-80l110,79.7L1325.9,352.4z"/>
<polygon fill="#7BABC3" points="1257.7,113.3 1257.7,143.5 1147.9,223.5 1120.4,213.3 "/>
<polygon fill="#A36F3D" points="1395.2,212.9 1367.7,223.2 1257.7,143.5 1257.7,113.3 "/>
<polygon fill="#C9B71D" points="1173.1,374.7 1190.1,352.6 1325.9,352.4 1343,374.5 "/>
<polygon fill="#5BAC7E" points="1120.4,213.3 1173.1,374.7 1190.1,352.6 1147.9,223.5 "/>
<path fill="#535D62" d="M193.6,169.8c40.3,0,63.4,23.9,63.4,66c0,44.2-23.1,69.8-63.4,69.8h-31.4v54.3h-35.8V169.8H193.6z
	 M162.1,269.8h29.6c19.9,0,31.2-10.9,31.2-32.6c0-21.2-11.3-31.8-31.2-31.8h-29.6V269.8z"/>
<path fill="#535D62" d="M315.7,205.4v41.3h76.5v35.6h-76.5v42.1h87.4v35.6H279.9V169.8h120.7v35.6H315.7z"/>
<path fill="#535D62" d="M431.2,359.9V169.8H467v190.1H431.2z"/>
<path fill="#535D62" d="M613,359.9L536.3,238v121.9h-34.2V169.8h32.6l77,122.2V169.8h34v190.1H613z"/>
<path fill="#535D62" d="M748.9,206.2v153.7h-35.8V206.2H665v-36.4h132.4v36.4H748.9z"/>
<path fill="#535D62" d="M831.4,323L819,359.9h-36.9l68.8-190.1h36.9l67.7,190.1h-38.3L904.7,323H831.4z M868.3,214.6l-25.1,73.8h50
	L868.3,214.6z"/>
<path fill="#535D62" d="M1105.2,264.1v73c-16.7,14.7-42.3,24.7-64.3,24.7c-48,0-84.5-41.8-84.5-96.9c0-54.9,37.1-96.4,86.5-96.4
	c23.6,0,47.5,10.9,63.6,27.7l-20.1,30.7c-11.8-13-28.1-21.2-43.5-21.2c-28.1,0-49.8,25.8-49.8,59.2c0,33.6,22,59.4,50,59.4
	c9.5,0,20.8-4.1,31-10.3v-49.9H1105.2z"/>
<path fill="#535D62" d="M1520.9,359.9L1444.2,238v121.9H1410V169.8h32.6l77,122.2V169.8h34v190.1H1520.9z"/>
<path fill="#535D62" d="M1624.2,205.4v41.3h76.5v35.6h-76.5v42.1h87.4v35.6h-123.1V169.8h120.7v35.6H1624.2z"/>
<polygon fill="#C5B41C" points="1173.6,374.7 1190.6,352.6 1326.4,352.4 1343.5,374.5 "/>
</svg>
