<svg xmlns="http://www.w3.org/2000/svg" viewBox="0 0 6591.89 2541.01"><g id="ffeb8b07-9488-4279-8a6a-1e5febde99b5" data-name="Calque 2"><g id="b0940953-f0b5-417a-9f3f-6eae39d742df" data-name="Calque 1"><path d="M5303.93,308.37H4852.17c273.53,223.54,519.91,504.41,722,832.42A2724,2724,0,0,1,5698,732C5576.75,575.93,5444.55,434.19,5303.93,308.37Z" style="fill:#6eb683"/><path d="M6537.25,489.85l-.19.09s-.57-2.46-1.72-7.09c-11-42.65-23.49-85-37.86-126.8.11-.1.22-.18.32-.28-33.16-98.93-87.95-235.9-166.92-352L6328.19,0h-401.5c77.81,115.42,131.94,250.76,164.8,348.8l-.32.27c14.37,41.83,26.82,84.16,37.86,126.81,1.15,4.62,1.72,7.09,1.72,7.09l.19-.1c146.65,576.27-7.14,1221-398.36,1772.17l189,121.05L5957,2491.87C6480.08,1896.28,6704.83,1148.37,6537.25,489.85Z" style="fill:#6eb683"/><path d="M688.32,2536.12,1183,2123.31c-5.79-400.92-189.93-819.49-516.67-1157.17L666,966l-1.82-2A2156.5,2156.5,0,0,0,336.7,688C242.33,624.12,131.19,560.88,7.9,512.26-86,1780.35,688.32,2536.12,688.32,2536.12l.25-.32C704.41,2553.38,672.48,2519.45,688.32,2536.12ZM263.23,966.78c359,341.12,547,633.61,604.56,1317.51C451.31,1797,398.67,1372.74,263.23,966.78Z" style="fill:#6eb683"/></g></g></svg>