<svg xmlns="http://www.w3.org/2000/svg" viewBox="0 0 6900.07 2230.08"><g id="b1bdad4c-8482-480e-ba5d-16a56831acfc" data-name="Calque 2"><g id="b7209010-729e-4666-a89b-73a7057b6d66" data-name="Calque 1"><path d="M6066.86,2230.08h467.51c230.58-332.49,365.7-736.19,365.7-1171.47,0-387.16-106.92-749.31-292.8-1058.61H6165.68c232.27,290.05,371.2,658.09,371.2,1058.61C6536.88,1513.08,6358,1925.74,6066.86,2230.08Z" style="fill:#7db0c8"/><path d="M5462.8,2171.42c355-242.53,588-650.42,588-1112.81,0-291.06-92.33-560.53-249.27-780.76H5257.72C5509,453,5673.53,744.14,5673.53,1073.74c0,535.56-434.05,969.61-969.53,969.61-14.55,0-29-.38-43.38-1v129.11Z" style="fill:#7db0c8"/><path d="M1736.3,2043.35c-327.47,0-617-162.34-792.53-410.95a2765.44,2765.44,0,0,1-462.47-84.06c99.37,254.4,273.87,471.18,496.2,623.08h802.18V2042.31C1765.3,2043,1750.85,2043.35,1736.3,2043.35Z" style="fill:#7db0c8"/><path d="M1319,909.54q-43.77,1.58-87.91,1.64c-321.74,0-628.54-63.24-909.28-177.35A1347.44,1347.44,0,0,0,0,987c357.28,176.68,757.63,279.35,1181.41,286.82A608.64,608.64,0,0,0,1319,909.54Z" style="fill:#7db0c8"/></g></g></svg>