<svg fill="#6eb683" xmlns="http://www.w3.org/2000/svg" width="283" height="283" viewBox="0 0 283.5 283.5"><defs><rect width="283" height="283"/></defs><path d="M167.1 11.4C43.2 22.1-58.6 163.2-65.3 340.6c-7.1 188.6 96 346.8 230.3 353.3 134.3 6.5 248.9-141.1 256-329.7 6.4-170.3-77.1-315.8-192.2-347.2 0.3 11.1 0.3 22.3-0.1 33.7 -0.1 4-0.4 7.9-0.6 11.9C325.1 93.1 394.8 217.5 389.3 362.7c-6.2 164-105.9 292.4-222.6 286.7C49.9 643.7-39.8 506.2-33.6 342.2c5.8-152.9 92.8-274.8 199.1-286 -1.3 15.6-3.5 30.8-6.4 45.6C72.5 116.5 2.9 217.7-1.9 343.7c-5.2 139.4 71 256.3 170.2 261.1 99.3 4.8 184-104.3 189.2-243.7 4.6-122-53.2-226.8-134.3-254.3 -2.3 14.7-5.2 29.1-8.7 43.1 67.1 22.3 115.1 108.8 111.3 209.6 -4.3 114.8-74.1 204.7-155.8 200.7C88.3 556.3 25.5 460 29.8 345.2c3.6-95.8 52.8-174.2 116.5-195.2 -5.3 15.9-11.6 31-18.6 45.2h0.1c0 0-0.8 1.6-2.3 4.3 -2.2 4.4-4.5 8.6-6.9 12.8 -0.1 0.1-0.2 0.2-0.3 0.3 -7 12.4-17 28.7-26.2 40.2 -7.6 11-19.7 31.1-25.7 54.9 -0.8 3.3-1.5 6.6-2.1 9.9 -0.1 0.9-0.3 1.7-0.4 2.6 0 0.1 0 0.2 0 0.3 -0.3 1.9-0.5 3.8-0.7 5.8l-0.1 0c-0.2 1.9-0.4 3.8-0.5 5.6 -0.5 4.9-0.8 9.8-1 14.9 -3.4 91.2 46.4 167.7 111.4 170.9 65 3.2 120.4-68.2 123.8-159.5 3.1-82.5-37.4-152.9-93.2-168 -5.2 15.2-11.2 29.7-17.9 43.6 45.1 4.7 79.2 58.7 76.8 122.7 -2.5 65.7-42.4 117.1-89.2 114.8 -46.8-2.3-82.7-57.3-80.2-123 0.5-12.8 2.4-25 5.5-36.4 3.5-10.1 8.6-19.2 13.3-26.1 3.6-4.4 7.2-9.1 10.6-13.8 0.1-0.1 0.2-0.1 0.1 0l0-0.1c11.7-16 22.4-33.7 31.7-52.7 5.2-9.9 10-20.3 14.4-31.1 2-4.5 4.3-11.9 6.8-20.8 3.5-10.7 6.7-21.7 9.5-33 0.4-1.6 0.7-3.2 1.1-4.7 0.5-2.1 1-4.2 1.5-6.3 0.1-0.7 0.3-1.3 0.4-2 3-13.9 5.5-28.2 7.2-42.8 0-0.1 0-0.1 0-0.1l0 0c1.6-13.5 2.8-27.2 3.3-41.2 6.2-163.6-68.7-304.4-174.8-345.4l-1.7 46.5C105.3-225 164.7-116.7 167.1 11.4" /></svg>