<svg fill="#7cb0c8" xmlns="http://www.w3.org/2000/svg" width="283" height="283" viewBox="0 0 283.5 283.5"><defs><rect y="1" width="283" height="282"/></defs><path d="M82.5 142.6c0 122.9 99.3 222.4 221.7 222.4 122.5 0 221.7-99.6 221.7-222.4 0-122.8-99.3-222.4-221.7-222.4C181.8-79.8 82.5 19.8 82.5 142.6M486.8 142.6c0 101.2-81.7 183.2-182.6 183.2 -100.8 0-182.6-82-182.6-183.2 0-101.2 81.7-183.2 182.6-183.2C405.1-40.5 486.8 41.5 486.8 142.6" class="a"/><path d="M4.2 142.6c0 166.2 134.3 301 300 301 165.7 0 300-134.7 300-301 0-166.2-134.3-300.9-300-300.9C138.5-158.3 4.2-23.6 4.2 142.6M565.1 142.6c0 144.5-116.8 261.7-260.8 261.7 -144.1 0-260.8-117.2-260.8-261.7 0-144.5 116.8-261.7 260.8-261.7C448.3-119.1 565.1-1.9 565.1 142.6" class="a"/><path d="M156.1 142.6c0 80.4 64.9 145.6 145.1 145.6 80.1 0 145.1-65.2 145.1-145.6 0-80.4-65-145.6-145.1-145.6C221-2.9 156.1 62.2 156.1 142.6M407.3 142.6c0 57.9-46.8 104.8-104.4 104.8 -57.7 0-104.5-46.9-104.5-104.8 0-57.9 46.8-104.8 104.5-104.8C360.5 37.8 407.3 84.8 407.3 142.6" class="a"/></svg>