<svg fill="#b5773c" xmlns="http://www.w3.org/2000/svg" width="283" height="283" viewBox="0 0 283.5 283.5"><polygon points="166 213.2 236.4 107 213.1 71.9 120.2 212 122.4 213.2 " class="a"/><rect x="0.3" y="248.3" width="282.8" height="35.1" class="a"/><polygon points="0.3 35.6 24 0 71 0 0.3 106.6 " class="a"/><polygon points="283.1 35.6 259.5 0 212.4 0 283.1 106.6 " class="a"/><polygon points="283.1 177.6 259.5 213.2 212.4 213.2 283.1 106.6 " class="a"/><polygon points="0.3 177.6 24 213.2 71 213.2 0.3 106.6 " class="a"/><polygon points="236.3 106.9 165.4 0 134.2 0 122.7 5.8 213 142 " class="a"/><polygon points="70.3 71.1 47 106.3 117.9 213.2 161.5 213.2 163.7 212 " class="a"/><polygon points="70.3 141.4 163.7 0.5 162.7 0 117.5 0 47 106.3 " class="a"/><rect x="0.3" y="248.3" width="282.8" height="35.1" class="a"/><rect x="0.3" y="248.3" width="282.8" height="35.1" class="a"/></svg>